<?xml version="1.0" encoding="utf-8"?>
<!-- Generator: Adobe Illustrator 16.0.5, SVG Export Plug-In . SVG Version: 6.00 Build 0)  -->
<!DOCTYPE svg PUBLIC "-//W3C//DTD SVG 1.1//EN" "http://www.w3.org/Graphics/SVG/1.1/DTD/svg11.dtd">
<svg version="1.1" id="Layer_1" xmlns="http://www.w3.org/2000/svg" xmlns:xlink="http://www.w3.org/1999/xlink" x="0px" y="0px"
	 width="360px" height="360px" viewBox="0 0 360 360" enable-background="new 0 0 360 360" xml:space="preserve">
<g>
	<g>
		<path fill="#13A2A9" stroke="#13A2A9" stroke-width="0.4271" stroke-miterlimit="10" d="M7.702,325.117l6.387,15.326l6.833-15.284
			l0.583,0.276l-7.137,15.957l-2.415,5.458H11.24l2.461-5.588l-6.6-15.91L7.702,325.117z"/>
		<path fill="#13A2A9" stroke="#13A2A9" stroke-width="0.4271" stroke-miterlimit="10" d="M26.252,326.171
			c1.277-0.748,2.665-1.12,4.163-1.12c1.511,0,2.888,0.372,4.165,1.111c1.27,0.74,2.278,1.749,3.021,3.027
			c0.737,1.282,1.108,2.67,1.108,4.174c0,1.498-0.371,2.889-1.108,4.16c-0.743,1.272-1.751,2.276-3.021,3.017
			c-1.277,0.741-2.654,1.111-4.165,1.111c-1.498,0-2.886-0.37-4.163-1.111c-1.289-0.74-2.296-1.744-3.036-3.017
			c-0.74-1.271-1.111-2.662-1.111-4.16c0-1.504,0.371-2.892,1.111-4.174C23.956,327.911,24.963,326.902,26.252,326.171z
			 M34.248,326.733c-1.164-0.691-2.443-1.039-3.833-1.039c-1.388,0-2.663,0.344-3.849,1.03c-1.177,0.677-2.1,1.608-2.787,2.787
			c-0.686,1.182-1.027,2.464-1.027,3.852c0,1.384,0.341,2.664,1.027,3.836c0.688,1.173,1.61,2.097,2.787,2.781
			c1.186,0.682,2.461,1.021,3.849,1.021c1.39,0,2.669-0.34,3.842-1.021c1.164-0.685,2.098-1.608,2.775-2.781
			c0.689-1.172,1.031-2.452,1.031-3.836c0-1.388-0.342-2.67-1.031-3.852C36.355,328.333,35.421,327.407,34.248,326.733z"/>
		<path fill="#13A2A9" stroke="#13A2A9" stroke-width="0.4271" stroke-miterlimit="10" d="M50.993,325.051
			c1.218,0,2.378,0.266,3.47,0.797c1.351,0.649,2.443,1.612,3.258,2.89c0.25,0.359,0.461,0.762,0.645,1.207v-4.527h0.65v15.952
			c-0.409,1.596-1.23,2.956-2.491,4.076c-1.256,1.122-2.739,1.795-4.449,2.029c-0.917,0.067-1.835-0.021-2.749-0.27
			c-0.917-0.256-1.752-0.653-2.5-1.2c-0.76-0.544-1.401-1.215-1.907-2.002c-0.52-0.793-0.886-1.639-1.102-2.545l0.649-0.154
			c0.182,0.819,0.519,1.598,0.997,2.331c0.481,0.732,1.055,1.343,1.735,1.834c0.96,0.69,2.037,1.099,3.218,1.228
			c1.175,0.13,2.284,0.01,3.341-0.356c1.046-0.365,1.991-0.984,2.84-1.853c0.854-0.869,1.437-1.911,1.768-3.118v-5.173
			c-0.746,1.842-1.949,3.327-3.616,4.466h-0.028c-1.443,0.848-3.017,1.188-4.694,1.032c-1.157-0.117-2.24-0.473-3.267-1.08
			c-1.025-0.6-1.876-1.378-2.532-2.327c-0.661-0.948-1.106-2.007-1.326-3.18c-0.221-1.171-0.215-2.318,0.028-3.436
			c0.378-1.77,1.218-3.258,2.545-4.468c1.343-1.218,2.902-1.926,4.703-2.11C50.433,325.066,50.702,325.051,50.993,325.051z
			 M50.993,325.694c-0.26,0-0.511,0.015-0.752,0.049c-1.656,0.157-3.1,0.803-4.333,1.938c-1.212,1.119-1.987,2.492-2.349,4.117
			c-0.232,1.053-0.242,2.111-0.028,3.188c0.223,1.076,0.629,2.049,1.232,2.911c0.6,0.879,1.378,1.597,2.333,2.156
			c0.941,0.56,1.944,0.893,2.996,0.99c1.542,0.149,2.966-0.161,4.289-0.927c1.218-0.832,2.19-1.9,2.917-3.209
			c0.711-1.309,1.064-2.639,1.055-3.989v-0.024c-0.031-1.378-0.421-2.651-1.169-3.814s-1.748-2.048-2.999-2.649
			C53.175,325.939,52.122,325.694,50.993,325.694z"/>
		<path fill="#13A2A9" stroke="#13A2A9" stroke-width="0.4271" stroke-miterlimit="10" d="M71.341,325.051
			c1.226,0,2.381,0.266,3.472,0.797c1.352,0.649,2.446,1.612,3.26,2.89c0.25,0.359,0.464,0.762,0.647,1.207v-4.509h0.649v15.957
			H78.72v-5.196c-0.75,1.842-1.95,3.327-3.618,4.466h-0.027c-1.446,0.848-3.018,1.188-4.693,1.032
			c-1.158-0.104-2.241-0.456-3.269-1.065c-1.025-0.611-1.879-1.393-2.535-2.342c-0.658-0.948-1.101-2.007-1.324-3.18
			c-0.223-1.171-0.211-2.318,0.026-3.436c0.383-1.77,1.225-3.258,2.547-4.468c1.344-1.218,2.907-1.926,4.704-2.11
			C70.789,325.066,71.057,325.051,71.341,325.051z M71.341,325.694c-0.257,0-0.507,0.015-0.749,0.049
			c-1.653,0.169-3.096,0.818-4.332,1.938c-1.209,1.119-1.987,2.497-2.35,4.137c-0.231,1.034-0.239,2.092-0.027,3.169
			c0.228,1.076,0.63,2.058,1.232,2.936c0.601,0.859,1.379,1.572,2.333,2.132c0.944,0.56,1.943,0.893,2.998,0.99
			c1.537,0.161,2.961-0.147,4.282-0.927c1.226-0.832,2.198-1.9,2.918-3.209c0.713-1.309,1.064-2.639,1.055-3.989
			c-0.028-1.393-0.416-2.676-1.167-3.839c-0.749-1.163-1.749-2.048-2.995-2.649C73.53,325.939,72.472,325.694,71.341,325.694z"/>
		<path fill="#13A2A9" stroke="#13A2A9" stroke-width="0.4271" stroke-miterlimit="10" d="M120.628,320.09
			c0.222-0.217,0.483-0.32,0.779-0.32c0.303,0,0.566,0.104,0.776,0.32c0.211,0.219,0.325,0.477,0.325,0.778
			c0,0.301-0.114,0.56-0.325,0.777c-0.21,0.212-0.474,0.32-0.776,0.32c-0.295,0-0.557-0.108-0.779-0.32
			c-0.212-0.218-0.326-0.477-0.326-0.777C120.302,320.566,120.416,320.309,120.628,320.09z M121.084,325.436h0.643v15.957h-0.643
			V325.436z"/>
		<path fill="#13A2A9" stroke="#13A2A9" stroke-width="0.4271" stroke-miterlimit="10" d="M126.043,325.436h0.646v2.979
			c0.388-0.631,0.855-1.191,1.397-1.681c0.994-0.862,2.138-1.403,3.436-1.616c0.369-0.06,0.738-0.088,1.12-0.088
			c0.646,0,1.268,0.102,1.87,0.301c1.008,0.346,1.843,0.911,2.506,1.703c0.642,0.764,1.085,1.669,1.318,2.716
			c0.139,0.69,0.209,1.676,0.209,2.953v8.69h-0.645v-8.69c0-1.219-0.066-2.15-0.195-2.8c-0.214-0.963-0.616-1.778-1.186-2.439
			c-0.592-0.717-1.324-1.222-2.201-1.511c-0.861-0.285-1.76-0.355-2.695-0.209c-1.175,0.196-2.212,0.688-3.101,1.461
			c-0.858,0.764-1.47,1.688-1.833,2.781v11.407h-0.646v-11.472c0-0.016,0-0.029,0-0.041V325.436z"/>
		<path fill="#13A2A9" stroke="#13A2A9" stroke-width="0.4271" stroke-miterlimit="10" d="M142.73,319.791h0.645v5.626h3.279v0.647
			h-3.279v15.328h-0.645v-15.328h-3.278v-0.647h3.278V319.791z"/>
		<path fill="#13A2A9" stroke="#13A2A9" stroke-width="0.4271" stroke-miterlimit="10" d="M155.133,325.051
			c1.701,0,3.258,0.478,4.655,1.431c1.387,0.957,2.408,2.198,3.035,3.722c0.306,0.731,0.492,1.493,0.564,2.287
			c0.027,0.185,0.019,0.294-0.036,0.332c-0.046,0.037-0.186,0.055-0.42,0.055c-0.072,0-0.115,0-0.145,0h-15.291
			c-0.019,0.157-0.019,0.317-0.019,0.475c0,0.632,0.072,1.258,0.232,1.877v0.063c0.443,1.668,1.363,3.036,2.732,4.107
			c1.366,1.069,2.932,1.603,4.691,1.603c1.406,0,2.701-0.346,3.875-1.045c1.18-0.693,2.103-1.629,2.761-2.789l0.369,0.624
			c-0.747,1.193-1.738,2.133-2.98,2.822c-1.23,0.689-2.58,1.037-4.024,1.037c-1.915,0-3.621-0.588-5.11-1.77
			c-1.499-1.178-2.478-2.673-2.933-4.482c0-0.014-0.009-0.027-0.009-0.043c-0.009-0.016-0.019-0.03-0.019-0.046
			c-0.155-0.629-0.229-1.284-0.229-1.959c0-1.495,0.369-2.88,1.11-4.162c0.735-1.278,1.748-2.287,3.024-3.027
			C152.244,325.423,153.635,325.051,155.133,325.051z M155.133,325.694c-1.915,0-3.584,0.626-5.018,1.879
			c-1.437,1.252-2.286,2.8-2.555,4.658h15.162c-0.12-0.704-0.324-1.382-0.612-2.028c-0.6-1.354-1.529-2.438-2.784-3.267
			C158.066,326.112,156.669,325.694,155.133,325.694z"/>
		<path fill="#13A2A9" stroke="#13A2A9" stroke-width="0.4271" stroke-miterlimit="10" d="M172.031,325.135c0.031,0,0.059,0,0.083,0
			c0.16,0,0.318,0.014,0.455,0.047l-0.084,0.625c-1.062-0.115-2.025,0.143-2.886,0.773c-0.863,0.634-1.398,1.48-1.601,2.544
			c-0.028,0.172-0.046,0.348-0.064,0.519v11.75h-0.649v-11.773v-4.137h0.649v1.98c0.333-0.561,0.757-1.028,1.276-1.398
			C170.042,325.444,170.987,325.135,172.031,325.135z"/>
		<path fill="#13A2A9" stroke="#13A2A9" stroke-width="0.4271" stroke-miterlimit="10" d="M180.892,325.051
			c1.218,0,2.377,0.266,3.468,0.797c1.352,0.649,2.434,1.612,3.26,2.89c0.24,0.359,0.452,0.762,0.646,1.207v-4.527h0.641v15.952
			c-0.399,1.596-1.231,2.956-2.489,4.076c-1.249,1.122-2.741,1.795-4.453,2.029c-0.916,0.067-1.832-0.021-2.749-0.27
			c-0.907-0.256-1.738-0.653-2.5-1.2c-0.749-0.544-1.386-1.215-1.904-2.002c-0.518-0.793-0.88-1.639-1.1-2.545l0.643-0.154
			c0.188,0.819,0.522,1.598,1.003,2.331c0.481,0.732,1.061,1.343,1.741,1.834c0.96,0.69,2.035,1.099,3.209,1.228
			c1.176,0.13,2.295,0.01,3.344-0.356c1.043-0.365,1.997-0.984,2.849-1.853c0.841-0.869,1.434-1.911,1.766-3.118v-5.173
			c-0.748,1.842-1.962,3.327-3.626,4.466h-0.019c-1.452,0.848-3.019,1.188-4.704,1.032c-1.147-0.117-2.238-0.473-3.264-1.08
			c-1.027-0.6-1.869-1.378-2.525-2.327c-0.668-0.948-1.114-2.007-1.335-3.18c-0.222-1.171-0.212-2.318,0.04-3.436
			c0.366-1.77,1.221-3.258,2.541-4.468c1.333-1.218,2.898-1.926,4.696-2.11C180.325,325.066,180.604,325.051,180.892,325.051z
			 M180.892,325.694c-0.261,0-0.508,0.015-0.761,0.049c-1.646,0.157-3.088,0.803-4.334,1.938c-1.2,1.119-1.987,2.492-2.349,4.117
			c-0.232,1.053-0.232,2.111-0.015,3.188c0.211,1.076,0.626,2.049,1.229,2.911c0.602,0.879,1.378,1.597,2.323,2.156
			c0.953,0.56,1.953,0.893,2.999,0.99c1.537,0.149,2.97-0.161,4.295-0.927c1.221-0.832,2.184-1.9,2.906-3.209
			c0.721-1.309,1.073-2.639,1.058-3.989v-0.024c-0.03-1.378-0.422-2.651-1.171-3.814c-0.741-1.163-1.738-2.048-2.987-2.649
			C183.075,325.939,182.01,325.694,180.892,325.694z"/>
		<path fill="#13A2A9" stroke="#13A2A9" stroke-width="0.4271" stroke-miterlimit="10" d="M197.965,325.135c0.028,0,0.059,0,0.086,0
			c0.157,0,0.315,0.014,0.452,0.047l-0.083,0.625c-1.064-0.115-2.028,0.143-2.889,0.773c-0.861,0.634-1.399,1.48-1.597,2.544
			c-0.03,0.172-0.049,0.348-0.068,0.519v11.75h-0.648v-11.773v-4.137h0.648v1.98c0.333-0.561,0.758-1.028,1.277-1.398
			C195.974,325.444,196.92,325.135,197.965,325.135z"/>
		<path fill="#13A2A9" stroke="#13A2A9" stroke-width="0.4271" stroke-miterlimit="10" d="M206.72,325.051
			c1.227,0,2.382,0.266,3.474,0.797c1.351,0.649,2.436,1.612,3.258,2.89c0.241,0.359,0.455,0.762,0.647,1.207v-4.509h0.638v15.957
			h-0.638v-5.196c-0.752,1.842-1.962,3.327-3.629,4.466h-0.019c-1.455,0.848-3.016,1.188-4.7,1.032
			c-1.147-0.104-2.239-0.456-3.268-1.065c-1.027-0.611-1.87-1.393-2.528-2.342c-0.666-0.948-1.109-2.007-1.332-3.18
			c-0.222-1.171-0.213-2.318,0.04-3.436c0.369-1.77,1.218-3.258,2.542-4.468c1.335-1.218,2.896-1.926,4.693-2.11
			C206.157,325.066,206.435,325.051,206.72,325.051z M206.72,325.694c-0.255,0-0.508,0.015-0.759,0.049
			c-1.646,0.169-3.089,0.818-4.331,1.938c-1.201,1.119-1.988,2.497-2.347,4.137c-0.235,1.034-0.235,2.092-0.021,3.169
			c0.214,1.076,0.629,2.058,1.231,2.936c0.604,0.859,1.379,1.572,2.322,2.132c0.954,0.56,1.954,0.893,3,0.99
			c1.536,0.161,2.972-0.147,4.295-0.927c1.222-0.832,2.181-1.9,2.907-3.209c0.716-1.309,1.071-2.639,1.053-3.989
			c-0.025-1.393-0.416-2.676-1.167-3.839c-0.741-1.163-1.737-2.048-2.99-2.649C208.906,325.939,207.843,325.694,206.72,325.694z"/>
		<path fill="#13A2A9" stroke="#13A2A9" stroke-width="0.4271" stroke-miterlimit="10" d="M221.529,319.791h0.649v5.626h3.276v0.647
			h-3.276v15.328h-0.649v-15.328h-3.276v-0.647h3.276V319.791z"/>
		<path fill="#13A2A9" stroke="#13A2A9" stroke-width="0.4271" stroke-miterlimit="10" d="M227.325,320.09
			c0.223-0.217,0.48-0.32,0.775-0.32c0.308,0,0.566,0.104,0.778,0.32c0.213,0.219,0.323,0.477,0.323,0.778
			c0,0.301-0.11,0.56-0.323,0.777c-0.212,0.212-0.471,0.32-0.778,0.32c-0.295,0-0.553-0.108-0.775-0.32
			c-0.214-0.218-0.324-0.477-0.324-0.777C227.001,320.566,227.111,320.309,227.325,320.09z M227.777,325.436h0.648v15.957h-0.648
			V325.436z"/>
		<path fill="#13A2A9" stroke="#13A2A9" stroke-width="0.4271" stroke-miterlimit="10" d="M231.942,325.117l6.387,15.326
			l6.83-15.284l0.583,0.276l-7.135,15.957l-0.306,0.688l-0.296-0.688l-6.665-16.04L231.942,325.117z"/>
		<path fill="#13A2A9" stroke="#13A2A9" stroke-width="0.4271" stroke-miterlimit="10" d="M254.646,325.051
			c1.711,0,3.265,0.478,4.655,1.431c1.396,0.957,2.406,2.198,3.046,3.722c0.295,0.731,0.48,1.493,0.557,2.287
			c0.024,0.185,0.016,0.294-0.027,0.332c-0.057,0.037-0.197,0.055-0.427,0.055c-0.065,0-0.119,0-0.149,0h-15.289
			c-0.01,0.157-0.019,0.317-0.019,0.475c0,0.632,0.083,1.258,0.24,1.877v0.063c0.446,1.668,1.352,3.036,2.723,4.107
			c1.378,1.069,2.942,1.603,4.69,1.603c1.406,0,2.702-0.346,3.877-1.045c1.184-0.693,2.103-1.629,2.769-2.789l0.359,0.624
			c-0.747,1.193-1.737,2.133-2.971,2.822c-1.236,0.689-2.578,1.037-4.034,1.037c-1.906,0-3.609-0.588-5.107-1.77
			c-1.487-1.178-2.472-2.673-2.934-4.482c0-0.014,0-0.027-0.009-0.043c-0.01-0.016-0.01-0.03-0.01-0.046
			c-0.156-0.629-0.243-1.284-0.243-1.959c0-1.495,0.371-2.88,1.114-4.162c0.738-1.278,1.744-2.287,3.035-3.027
			C251.771,325.423,253.154,325.051,254.646,325.051z M254.646,325.694c-1.906,0-3.582,0.626-5.007,1.879
			c-1.438,1.252-2.286,2.8-2.563,4.658h15.157c-0.107-0.704-0.311-1.382-0.6-2.028c-0.6-1.354-1.533-2.438-2.794-3.267
			C257.581,326.112,256.185,325.694,254.646,325.694z"/>
		<path fill="#13A2A9" stroke="#13A2A9" stroke-width="0.4271" stroke-miterlimit="10" d="M273.12,319.77h0.649v8.645
			c0.387-0.631,0.86-1.191,1.405-1.681c0.99-0.862,2.127-1.403,3.424-1.616c0.373-0.06,0.748-0.088,1.121-0.088
			c0.645,0,1.275,0.102,1.882,0.301c1.004,0.346,1.839,0.911,2.496,1.703c0.647,0.764,1.085,1.669,1.315,2.716
			c0.145,0.69,0.218,1.676,0.218,2.953v8.69h-0.645v-8.69c0-1.219-0.065-2.15-0.195-2.8c-0.223-0.963-0.611-1.778-1.186-2.439
			c-0.59-0.717-1.321-1.222-2.201-1.511c-0.861-0.285-1.76-0.355-2.691-0.209c-1.188,0.196-2.216,0.688-3.113,1.461
			c-0.858,0.764-1.471,1.688-1.83,2.781v11.407h-0.649v-11.472c0-0.016,0-0.029,0-0.041V319.77z"/>
		<path fill="#13A2A9" stroke="#13A2A9" stroke-width="0.4271" stroke-miterlimit="10" d="M298.025,325.051
			c1.705,0,3.255,0.478,4.655,1.431c1.391,0.957,2.405,2.198,3.036,3.722c0.308,0.731,0.492,1.493,0.565,2.287
			c0.027,0.185,0.019,0.294-0.039,0.332c-0.046,0.037-0.184,0.055-0.416,0.055c-0.073,0-0.119,0-0.147,0h-15.289
			c-0.019,0.157-0.019,0.317-0.019,0.475c0,0.632,0.073,1.258,0.233,1.877v0.063c0.44,1.668,1.359,3.036,2.727,4.107
			c1.368,1.069,2.938,1.603,4.693,1.603c1.407,0,2.704-0.346,3.876-1.045c1.179-0.693,2.104-1.629,2.76-2.789l0.372,0.624
			c-0.75,1.193-1.743,2.133-2.98,2.822c-1.231,0.689-2.585,1.037-4.027,1.037c-1.916,0-3.617-0.588-5.109-1.77
			c-1.501-1.178-2.479-2.673-2.932-4.482c0-0.014-0.013-0.027-0.013-0.043c-0.009-0.016-0.019-0.03-0.019-0.046
			c-0.155-0.629-0.23-1.284-0.23-1.959c0-1.495,0.372-2.88,1.11-4.162c0.742-1.278,1.754-2.287,3.03-3.027
			C295.139,325.423,296.525,325.051,298.025,325.051z M298.025,325.694c-1.916,0-3.58,0.626-5.017,1.879
			c-1.434,1.252-2.287,2.8-2.557,4.658h15.163c-0.117-0.704-0.323-1.382-0.609-2.028c-0.603-1.354-1.528-2.438-2.789-3.267
			C300.961,326.112,299.561,325.694,298.025,325.694z"/>
		<path fill="#13A2A9" stroke="#13A2A9" stroke-width="0.4271" stroke-miterlimit="10" d="M318.333,325.051
			c1.222,0,2.378,0.266,3.47,0.797c1.351,0.649,2.437,1.612,3.258,2.89c0.242,0.359,0.455,0.762,0.647,1.207v-4.509h0.639v15.957
			h-0.639v-5.196c-0.749,1.842-1.961,3.327-3.628,4.466h-0.019c-1.452,0.848-3.018,1.188-4.701,1.032
			c-1.148-0.104-2.24-0.456-3.267-1.065c-1.027-0.611-1.87-1.393-2.528-2.342c-0.663-0.948-1.109-2.007-1.33-3.18
			c-0.225-1.171-0.215-2.318,0.034-3.436c0.372-1.77,1.222-3.258,2.546-4.468c1.333-1.218,2.897-1.926,4.692-2.11
			C317.767,325.066,318.045,325.051,318.333,325.051z M318.333,325.694c-0.261,0-0.511,0.015-0.761,0.049
			c-1.646,0.169-3.089,0.818-4.329,1.938c-1.205,1.119-1.989,2.497-2.353,4.137c-0.23,1.034-0.23,2.092-0.02,3.169
			c0.214,1.076,0.629,2.058,1.235,2.936c0.6,0.859,1.375,1.572,2.319,2.132c0.954,0.56,1.953,0.893,3,0.99
			c1.538,0.161,2.972-0.147,4.294-0.927c1.221-0.832,2.184-1.9,2.907-3.209c0.72-1.309,1.075-2.639,1.054-3.989
			c-0.026-1.393-0.415-2.676-1.164-3.839c-0.744-1.163-1.742-2.048-2.99-2.649C320.518,325.939,319.452,325.694,318.333,325.694z"/>
		<path fill="#13A2A9" stroke="#13A2A9" stroke-width="0.4271" stroke-miterlimit="10" d="M330.66,319.832h0.648v21.561h-0.648
			V319.832z"/>
		<path fill="#13A2A9" stroke="#13A2A9" stroke-width="0.4271" stroke-miterlimit="10" d="M338.021,319.791h0.635v5.626h3.278v0.647
			h-3.278v15.328h-0.635v-15.328h-3.289v-0.647h3.289V319.791z"/>
		<path fill="#13A2A9" stroke="#13A2A9" stroke-width="0.4271" stroke-miterlimit="10" d="M345.366,319.77h0.65v8.645
			c0.388-0.631,0.851-1.191,1.397-1.681c0.987-0.862,2.138-1.403,3.433-1.616c0.369-0.06,0.739-0.088,1.119-0.088
			c0.647,0,1.271,0.102,1.871,0.301c1.009,0.346,1.843,0.911,2.508,1.703c0.639,0.764,1.082,1.669,1.312,2.716
			c0.139,0.69,0.215,1.676,0.215,2.953v8.69h-0.648v-8.69c0-1.219-0.067-2.15-0.193-2.8c-0.216-0.963-0.61-1.778-1.185-2.439
			c-0.594-0.717-1.326-1.222-2.206-1.511c-0.858-0.285-1.753-0.355-2.688-0.209c-1.182,0.196-2.213,0.688-3.104,1.461
			c-0.861,0.764-1.469,1.688-1.83,2.781v11.407h-0.65v-11.472c0-0.016,0-0.029,0-0.041V319.77z"/>
	</g>
	<g>
		<path fill="#82AF81" d="M106.812,341.434c-0.146-0.064-0.3-0.139-0.437-0.217c-0.554-0.315-1.257-0.914-2.1-1.781
			c-0.556-0.514-0.953-0.838-1.187-0.972c-0.255-0.13-0.507-0.2-0.775-0.2c-0.148,0-0.288,0.014-0.434,0.041
			c-0.424,0.122-0.741,0.365-0.954,0.731c-0.138,0.269-0.215,0.524-0.215,0.771c0,0.149,0.019,0.293,0.058,0.438
			c0.12,0.425,0.35,0.728,0.695,0.912c0.219,0.118,0.524,0.18,0.905,0.18c0.212,0,0.455-0.018,0.72-0.062l-0.165,1.445
			c-0.288,0.082-0.574,0.119-0.871,0.119c-0.463,0-0.915-0.119-1.358-0.355c-0.704-0.398-1.169-1.006-1.391-1.822
			c-0.083-0.288-0.121-0.574-0.121-0.854c0-0.512,0.14-1.012,0.418-1.503c0.438-0.739,1.063-1.221,1.88-1.442
			c0.294-0.084,0.572-0.121,0.851-0.121c0.52,0,1.009,0.14,1.489,0.417c0.465,0.251,1.066,0.773,1.824,1.564
			c0.666,0.605,1.168,1.004,1.483,1.19c0.36,0.196,0.72,0.295,1.092,0.295c0.212,0,0.415-0.032,0.627-0.099
			c0.612-0.161,1.074-0.517,1.387-1.073c0.197-0.356,0.298-0.716,0.298-1.086c0-0.2-0.027-0.402-0.101-0.617
			c-0.16-0.592-0.511-1.05-1.046-1.364c-0.335-0.185-0.708-0.277-1.112-0.277c-0.288,0-0.602,0.046-0.924,0.139l-0.026-1.564
			c0.331-0.092,0.654-0.139,0.969-0.139c0.62,0,1.232,0.172,1.824,0.517c0.915,0.515,1.508,1.275,1.786,2.274
			c0.092,0.355,0.137,0.703,0.137,1.032c0,0.634-0.165,1.24-0.5,1.822c-0.508,0.913-1.286,1.509-2.313,1.801
			c-0.305,0.078-0.591,0.124-0.868,0.139c-0.391,1.253-1.084,2.384-2.084,3.388c-1.62,1.638-3.583,2.458-5.859,2.458
			c-2.289,0-4.236-0.815-5.867-2.439c-1.621-1.625-2.437-3.581-2.437-5.882c0-2.283,0.798-4.276,2.4-5.979
			c1.092-1.175,2.516-2.059,4.273-2.656c-0.84-0.356-1.698-1.003-2.578-1.939c-0.881-0.94-1.317-2.229-1.317-3.881
			c0-1.612,0.575-2.999,1.732-4.162c1.154-1.159,2.546-1.744,4.181-1.744c1.638,0,3.048,0.585,4.202,1.744
			c0.652,0.622,1.092,1.313,1.325,2.077l-1.397,0.558c-0.21-0.565-0.553-1.088-1.038-1.564c-0.858-0.843-1.889-1.271-3.092-1.271
			c-1.192,0-2.218,0.428-3.072,1.271c-0.851,0.846-1.275,1.874-1.275,3.092c0,1.203,0.406,2.239,1.229,3.119
			c0.833,0.877,1.589,1.446,2.297,1.711c0.692,0.265,1.564,0.402,2.608,0.418v1.483l-1.249,0.019
			c-2.562,0.49-4.479,1.436-5.768,2.833c-1.275,1.403-1.914,3.027-1.914,4.873c0,1.863,0.657,3.451,1.972,4.775
			c1.314,1.318,2.904,1.979,4.784,1.979c1.843,0,3.436-0.661,4.747-1.979C105.93,343.245,106.477,342.388,106.812,341.434z"/>
	</g>
	<path d="M102.58,254.277l-15.659,38.241c-0.538,1.755-1.258,1.412-1.258,1.412c-0.988,0-1.372-1.368-1.372-1.368v0.036
		l-15.826-38.321h-7.062l19.224,47.058c0,0,1.221,3.249,5.043,3.249c3.73,0,4.84-3.313,4.84-3.313l19.532-46.993H102.58z"/>
	<path d="M292.614,255.155c-2.779,1.472-4.861,3.563-6.278,6.271v-7.149h-6.264v42.751c0.037-0.178,0.064-0.292,0.064-0.292
		s-0.335,7.848,6.7,7.848h0.296v-30.096c0-3.233,0.554-5.826,1.673-7.768c0.714-1.172,2.027-2.554,3.972-4.146
		s4.474-2.439,7.602-2.564v-6.7C297.722,253.188,295.139,253.81,292.614,255.155z"/>
	<path d="M193.237,288.873v-28.414h14.864c-0.093-0.028-0.15-0.038-0.15-0.038s6.878,0.298,7.758-5.446v-0.786h-22.472v-17.567
		h-6.711v53.402c0,10.414,6.116,15.625,18.363,15.625v-5.562C197.124,300.087,193.237,296.356,193.237,288.873z"/>
	<path d="M358.473,276.277v-22.459c-6.137,0-6.667,5.975-6.7,7.503v0.101c-0.095-0.101-0.177-0.204-0.268-0.302
		c-4.944-5.146-10.94-7.843-18.012-8.08c-7.293-0.291-13.562,2.195-18.798,7.46c-5.239,5.267-7.858,11.579-7.858,18.929
		c0,7.069,2.437,13.156,7.306,18.273c4.865,5.12,10.749,7.804,17.668,8.029c7.709,0.232,14.23-2.638,19.602-8.543v0.102
		c0.165-0.159,0.296-0.339,0.443-0.498v0.79c0.148,2.031,1.073,7.002,6.682,7.002h0.028V279.7v-0.361
		C358.593,278.294,358.556,277.282,358.473,276.277z M346.146,293.411c-3.926,4.101-8.654,6.026-14.2,5.794
		c-5.126-0.24-9.507-2.346-13.134-6.33c-3.625-3.98-5.387-8.625-5.264-13.933c0.053-5.363,1.969-9.937,5.747-13.708
		c3.777-3.771,8.346-5.66,13.717-5.66c5.134,0,9.521,1.889,13.176,5.66c3.048,3.134,4.837,6.803,5.435,10.996l-0.073,6.72
		C350.884,286.86,349.087,290.344,346.146,293.411z"/>
	<path d="M264.189,279.123c-0.01-0.023,0-0.043,0-0.066v-0.346v-24.893c-6.147,0-6.673,5.975-6.713,7.503v0.194
		c-0.129-0.133-0.229-0.271-0.348-0.396c-4.944-5.146-10.946-7.843-18.012-8.08c-7.295-0.291-13.569,2.195-18.801,7.46
		c-5.236,5.267-7.856,11.579-7.856,18.929c0,7.069,2.434,13.156,7.304,18.273c4.859,5.12,10.755,7.804,17.668,8.029
		c7.745,0.235,14.298-2.656,19.697-8.631v0.189c0.118-0.134,0.219-0.268,0.348-0.401v0.094c0.013-0.05,0.019-0.086,0.031-0.126
		c0.009-0.006,0.009-0.016,0.015-0.029c-0.006,0.884,0.127,7.72,6.667,7.752V279.7v-0.361
		C264.189,279.271,264.18,279.197,264.189,279.123z M251.771,293.411c-3.916,4.101-8.654,6.026-14.197,5.794
		c-5.132-0.24-9.509-2.346-13.137-6.33c-3.628-3.98-5.387-8.625-5.267-13.933c0.059-5.363,1.973-9.937,5.75-13.708
		c3.774-3.771,8.346-5.66,13.714-5.66c5.127,0,9.526,1.889,13.18,5.66c3.165,3.265,4.996,7.104,5.516,11.514l-0.063,5.456
		C256.711,286.415,254.888,290.15,251.771,293.411z"/>
	<path d="M159.326,261.321v0.258c-0.142-0.152-0.26-0.31-0.409-0.459c-4.941-5.146-10.938-7.843-18-8.08
		c-7.305-0.291-13.571,2.195-18.807,7.46c-5.236,5.267-7.849,11.579-7.849,18.929c0,7.069,2.424,13.156,7.293,18.273
		c4.869,5.12,10.755,7.804,17.677,8.029c7.767,0.232,14.348-2.676,19.741-8.69v0.249c0.112-0.11,0.194-0.235,0.304-0.342v1.061
		c0.245,2.226,1.391,6.575,6.639,6.575h0.062v-22.763c0.067-0.91,0.086-1.824,0.049-2.765v-0.346v-24.893
		C159.892,253.818,159.363,259.793,159.326,261.321z M153.567,293.411c-3.922,4.101-8.651,6.026-14.196,5.794
		c-5.139-0.24-9.515-2.346-13.144-6.33c-3.616-3.98-5.377-8.625-5.267-13.933c0.059-5.363,1.981-9.937,5.756-13.708
		c3.769-3.771,8.351-5.66,13.717-5.66c5.128,0,9.517,1.889,13.179,5.66c3.279,3.383,5.119,7.39,5.553,12.009l-0.037,4.488
		C158.63,286.134,156.8,290.03,153.567,293.411z"/>
	<path d="M47.169,261.321l-0.01,0.203c-0.12-0.136-0.224-0.274-0.351-0.404c-4.943-5.146-10.941-7.843-18.003-8.08
		c-7.301-0.291-13.566,2.195-18.807,7.46c-5.231,5.267-7.849,11.579-7.849,18.929c0,7.069,2.437,13.156,7.297,18.273
		c4.865,5.12,10.749,7.804,17.667,8.029c7.755,0.235,14.308-2.656,19.704-8.636v0.194c0.117-0.134,0.222-0.262,0.341-0.396v0.193
		c0.04,1.526,0.566,7.497,6.71,7.497V279.7v-0.361c0-0.018,0-0.03,0-0.052c0-0.073,0.009-0.147,0-0.23v-0.346v-24.893
		C47.735,253.818,47.206,259.793,47.169,261.321z M41.45,293.411c-3.917,4.101-8.645,6.026-14.199,5.794
		c-5.118-0.24-9.507-2.346-13.134-6.33c-3.629-3.98-5.387-8.625-5.254-13.933c0.055-5.363,1.969-9.937,5.747-13.708
		c3.777-3.771,8.347-5.66,13.717-5.66c5.124,0,9.523,1.889,13.17,5.66c3.171,3.268,5.006,7.107,5.513,11.524l-0.042,5.424
		C46.401,286.391,44.577,290.147,41.45,293.411z"/>
	<path fill="none" stroke="#82AF81" stroke-width="6.2601" stroke-miterlimit="10" d="M186.573,257.454h-5.581
		c0,0-4.776-0.132-4.776,5.181c0,5.316,5.053,5.201,5.053,5.201h3.935"/>
	<path fill="#FFFFFF" d="M211.046,256.892c0-0.615-0.502-1.126-1.12-1.126c-0.623,0-1.125,0.511-1.125,1.126
		c0,0.625,0.502,1.119,1.125,1.119C210.544,258.011,211.046,257.517,211.046,256.892z"/>
	<path fill="none" stroke="#82AF81" stroke-width="6.2601" stroke-miterlimit="10" d="M194.228,289.073c0,0,5.607-0.511,5.607,6.5
		v2.67"/>
	<path fill="#FFFFFF" d="M194.902,292.233v-29.354h-1.685v25.79c0,0-0.517,6.6,3.933,9.474c0,0,2.983,2.063,7.739,1.944l-1.27-1.993
		c0,0-6.68-0.854-7.098-4.218L194.902,292.233z"/>
	<polygon fill="#FFFFFF" points="184.953,292.473 186.564,292.546 186.564,260.634 184.953,260.732 	"/>
	<rect x="184.071" y="273.633" fill="#FFFFFF" width="11.091" height="9.613"/>
	<path fill="none" stroke="#82AF81" stroke-width="6.2601" stroke-miterlimit="10" d="M185.044,288.886c0,0-5.048,0.112-5.048-5.205
		c0-5.313,4.168-5.178,4.168-5.178h4.078h2.948h3.923c0,0,4.749,0.109,4.749-5.206c0-5.309-4.765-5.178-4.765-5.178"/>
	<g>
		<path fill="#13A2A9" d="M273.16,88.702c-8.348-38.78-42.794-67.861-84.08-67.861c-41.298,0-75.772,29.124-84.09,67.947
			c18.166,3.216,35.635,11.393,50.263,24.594c-0.045,1.15-0.103,2.298-0.111,3.455c-0.108,30.091,12.897,57.155,33.617,75.856
			c0,0.057,0,0.115,0,0.177c-0.136,0.009-0.278,0.009-0.419,0.021c0.248,0,0.49,0.033,0.74,0.033c0.172,0,0.34-0.022,0.514-0.027
			c-0.204-0.012-0.405-0.012-0.607-0.024c20.837-18.706,33.909-45.849,33.812-76.036c-0.005-1.256-0.062-2.499-0.116-3.736
			C237.383,99.934,254.937,91.831,273.16,88.702z"/>
		<path fill="#50C4CF" d="M188.759,192.693c-20.719-18.702-33.725-45.766-33.617-75.856c0.008-1.157,0.066-2.305,0.111-3.455
			c-14.628-13.201-32.097-21.377-50.263-24.594c-1.251,5.84-1.944,11.887-1.944,18.095c0,47.268,38.124,85.601,85.294,86.008
			c0.141-0.013,0.283-0.013,0.419-0.021C188.759,192.809,188.759,192.75,188.759,192.693z"/>
	</g>
	<path fill="#50C4CF" d="M275.125,106.883c0-6.245-0.704-12.313-1.965-18.182c-18.224,3.129-35.777,11.232-50.478,24.399
		c0.054,1.238,0.111,2.48,0.116,3.736c0.097,30.188-12.976,57.33-33.812,76.036c0.202,0.013,0.403,0.013,0.607,0.024
		C236.883,192.622,275.125,154.227,275.125,106.883z"/>
	<path fill="#50C4CF" d="M188.81,187.145c0.442-26.089,10.829-51.995,31.104-71.511c0.906-0.871,1.836-1.698,2.77-2.533
		c-1.132-28.192-13.698-53.396-33.191-71.139c-0.179-0.155-0.349-0.324-0.521-0.477c-0.179,0.152-0.345,0.321-0.509,0.477
		c-19.575,17.801-32.159,43.11-33.209,71.42c0.824,0.744,1.658,1.475,2.465,2.252C177.981,135.15,188.37,161.056,188.81,187.145z"/>
	<path opacity="0.7" fill="#FFFFFF" d="M188.81,187.145c-0.439-26.089-10.829-51.995-31.091-71.511
		c-0.808-0.777-1.641-1.508-2.465-2.252c-0.045,1.15-0.103,2.298-0.111,3.455c-0.108,30.091,12.897,57.155,33.617,75.856
		c0.051-1.237,0.051-2.472,0.051-3.711C188.81,188.372,188.797,187.758,188.81,187.145z"/>
	<path fill="#D1EBE8" d="M188.81,187.145c-0.439-26.089-10.829-51.995-31.091-71.511c-0.808-0.777-1.641-1.508-2.465-2.252
		c-0.045,1.15-0.103,2.298-0.111,3.455c-0.108,30.091,12.897,57.155,33.617,75.856c0.051-1.237,0.051-2.472,0.051-3.711
		C188.81,188.372,188.797,187.758,188.81,187.145z"/>
	<path opacity="0.7" fill="#FFFFFF" d="M222.799,116.837c-0.005-1.256-0.062-2.499-0.116-3.736c-0.934,0.835-1.863,1.663-2.77,2.533
		c-20.274,19.516-30.661,45.422-31.104,71.511c0.012,0.613,0,1.228,0,1.838c0,1.271,0.006,2.539,0.053,3.806
		c0.032,0.027,0.058,0.059,0.092,0.085h0.032C209.823,174.167,222.896,147.024,222.799,116.837z"/>
	<path fill="#D1EBE8" d="M222.799,116.837c-0.005-1.256-0.062-2.499-0.116-3.736c-0.934,0.835-1.863,1.663-2.77,2.533
		c-20.274,19.516-30.661,45.422-31.104,71.511c0.012,0.613-0.496,1.366-0.496,1.976c0,1.271-0.492,1.022-0.44,2.287
		c0.029,0.026,1.047,1.439,1.081,1.466h0.032C209.823,174.167,222.896,147.024,222.799,116.837z"/>
	<path fill="none" stroke="#D1EBE8" stroke-width="4.7253" stroke-linecap="round" stroke-miterlimit="10" d="M282.138,88.724
		c-7.265-37.47-36.608-67.072-73.954-74.712"/>
	<path fill="none" stroke="#D1EBE8" stroke-width="4.7253" stroke-linecap="round" stroke-miterlimit="10" d="M208.085,199.78
		c37.468-7.629,66.893-37.345,74.098-74.959"/>
	<path fill="none" stroke="#D1EBE8" stroke-width="4.7253" stroke-linecap="round" stroke-miterlimit="10" d="M95.919,124.501
		c7.165,38.133,37.174,68.21,75.252,75.497"/>
	<path fill="none" stroke="#D1EBE8" stroke-width="4.7253" stroke-linecap="round" stroke-miterlimit="10" d="M171.165,13.774
		c-37.911,7.25-67.813,37.099-75.149,74.992"/>
</g>
</svg>
